<svg width="9" height="9" viewBox="0 0 9 9" fill="none" xmlns="http://www.w3.org/2000/svg">
<g id="&#230;&#136;&#145;&#231;&#154;&#132;&#230;&#148;&#182;&#232;&#151;&#143;" clip-path="url(#clip0_251_832)">
<rect width="375" height="812" transform="translate(-29 -141)" fill="white"/>
<g id="Rectangle 34" filter="url(#filter0_d_251_832)">
<rect x="-12" y="-34" width="343" height="49" fill="white"/>
</g>
<g id="environment">
<path id="Vector" d="M4.5 2.87402C4.23721 2.87402 3.99023 2.97598 3.80391 3.1623C3.71234 3.2536 3.63974 3.36211 3.59026 3.48157C3.54079 3.60103 3.51542 3.7291 3.51562 3.8584C3.51562 4.12119 3.61846 4.36816 3.80391 4.55449C3.89521 4.64605 4.00371 4.71866 4.12317 4.76813C4.24263 4.81761 4.3707 4.84297 4.5 4.84277C4.76279 4.84277 5.00977 4.73994 5.19609 4.55449C5.38242 4.36816 5.48438 4.12119 5.48438 3.8584C5.48438 3.59561 5.38242 3.34863 5.19609 3.1623C5.00977 2.97598 4.76279 2.87402 4.5 2.87402ZM7.51113 2.54092C7.34567 2.15937 7.1071 1.8139 6.80889 1.52402C6.5097 1.23152 6.15699 0.999368 5.77002 0.840234C5.36748 0.673242 4.94033 0.588867 4.5 0.588867C4.05967 0.588867 3.63252 0.673242 3.22998 0.839355C2.84063 1.0002 2.4917 1.23047 2.19111 1.52314C1.8931 1.81319 1.65455 2.15861 1.48887 2.54004C1.31748 2.93555 1.23047 3.35566 1.23047 3.78809C1.23047 4.40859 1.379 5.02646 1.6708 5.62236C1.90547 6.10137 2.2333 6.56807 2.64639 7.01191C3.35215 7.76953 4.09219 8.23271 4.30225 8.35664C4.36187 8.39185 4.42987 8.41037 4.49912 8.41025C4.56768 8.41025 4.63535 8.39268 4.696 8.35664C4.90605 8.23271 5.64609 7.76953 6.35186 7.01191C6.76494 6.56895 7.09277 6.10137 7.32744 5.62236C7.621 5.02734 7.76953 4.41035 7.76953 3.78896C7.76953 3.35654 7.68252 2.93643 7.51113 2.54092ZM4.5 5.40527C3.6457 5.40527 2.95312 4.7127 2.95312 3.8584C2.95312 3.0041 3.6457 2.31152 4.5 2.31152C5.3543 2.31152 6.04688 3.0041 6.04688 3.8584C6.04688 4.7127 5.3543 5.40527 4.5 5.40527Z" fill="#989898"/>
</g>
</g>
<defs>
<filter id="filter0_d_251_832" x="-12" y="-34" width="351" height="57" filterUnits="userSpaceOnUse" color-interpolation-filters="sRGB">
<feFlood flood-opacity="0" result="BackgroundImageFix"/>
<feColorMatrix in="SourceAlpha" type="matrix" values="0 0 0 0 0 0 0 0 0 0 0 0 0 0 0 0 0 0 127 0" result="hardAlpha"/>
<feOffset dx="4" dy="4"/>
<feGaussianBlur stdDeviation="2"/>
<feComposite in2="hardAlpha" operator="out"/>
<feColorMatrix type="matrix" values="0 0 0 0 0 0 0 0 0 0 0 0 0 0 0 0 0 0 0.04 0"/>
<feBlend mode="normal" in2="BackgroundImageFix" result="effect1_dropShadow_251_832"/>
<feBlend mode="normal" in="SourceGraphic" in2="effect1_dropShadow_251_832" result="shape"/>
</filter>
<clipPath id="clip0_251_832">
<rect width="375" height="812" fill="white" transform="translate(-29 -141)"/>
</clipPath>
</defs>
</svg>
