<svg width="20" height="20" viewBox="0 0 20 20" fill="none" xmlns="http://www.w3.org/2000/svg">
<g id="Frame 3">
<g id="Rectangle 14" filter="url(#filter0_d_17_751)">
<rect x="-15" y="-10" width="343" height="46" fill="white"/>
</g>
<g id="Edit">
<path id="Vector" d="M4.32352 14.3551C4.36816 14.3551 4.41281 14.3506 4.45745 14.344L8.21191 13.6855C8.25656 13.6765 8.29897 13.6565 8.33022 13.623L17.7923 4.16091C17.813 4.14026 17.8294 4.11574 17.8406 4.08873C17.8518 4.06173 17.8575 4.03278 17.8575 4.00355C17.8575 3.97431 17.8518 3.94537 17.8406 3.91836C17.8294 3.89136 17.813 3.86683 17.7923 3.84618L14.0825 0.134129C14.04 0.0917184 13.9842 0.069397 13.924 0.069397C13.8637 0.069397 13.8079 0.0917184 13.7655 0.134129L4.30343 9.59618C4.26995 9.62966 4.24986 9.66984 4.24093 9.71449L3.58245 13.469C3.56074 13.5885 3.56849 13.7116 3.60505 13.8275C3.64162 13.9434 3.70587 14.0487 3.79227 14.1341C3.93959 14.277 4.12486 14.3551 4.32352 14.3551ZM5.82799 10.4623L13.924 2.3685L15.5601 4.00466L7.46415 12.0984L5.47977 12.4489L5.82799 10.4623ZM18.2141 16.2301H1.78557C1.39049 16.2301 1.07129 16.5493 1.07129 16.9444V17.748C1.07129 17.8462 1.15165 17.9265 1.24986 17.9265H18.7499C18.8481 17.9265 18.9284 17.8462 18.9284 17.748V16.9444C18.9284 16.5493 18.6092 16.2301 18.2141 16.2301Z" fill="#FF7875"/>
</g>
</g>
<defs>
<filter id="filter0_d_17_751" x="-15" y="-10" width="351" height="54" filterUnits="userSpaceOnUse" color-interpolation-filters="sRGB">
<feFlood flood-opacity="0" result="BackgroundImageFix"/>
<feColorMatrix in="SourceAlpha" type="matrix" values="0 0 0 0 0 0 0 0 0 0 0 0 0 0 0 0 0 0 127 0" result="hardAlpha"/>
<feOffset dx="4" dy="4"/>
<feGaussianBlur stdDeviation="2"/>
<feComposite in2="hardAlpha" operator="out"/>
<feColorMatrix type="matrix" values="0 0 0 0 0 0 0 0 0 0 0 0 0 0 0 0 0 0 0.04 0"/>
<feBlend mode="normal" in2="BackgroundImageFix" result="effect1_dropShadow_17_751"/>
<feBlend mode="normal" in="SourceGraphic" in2="effect1_dropShadow_17_751" result="shape"/>
</filter>
</defs>
</svg>
