<svg width="15" height="15" viewBox="0 0 15 15" fill="none" xmlns="http://www.w3.org/2000/svg">
<g id="&#232;&#189;&#172;&#229;&#143;&#145;" clip-path="url(#clip0_642_2547)">
<rect width="375" height="812" transform="translate(-22 -76)" fill="white"/>
<g id="Component 34">
<g id="Component 32">
<rect id="Rectangle 29" x="-21" y="-9" width="376" height="66" fill="url(#paint0_linear_642_2547)"/>
</g>
</g>
<g id="Branches">
<path id="Vector" d="M11.317 1.62179C10.2824 1.62179 9.44203 2.46219 9.44203 3.49679C9.44203 4.33552 9.99616 5.04701 10.7562 5.28641V6.89188L4.28578 9.0113V4.25181C5.02574 4.0007 5.55811 3.29925 5.55811 2.47559C5.55811 1.44099 4.7177 0.600586 3.68311 0.600586C2.64851 0.600586 1.80811 1.44099 1.80811 2.47559C1.80811 3.29925 2.34047 3.99902 3.08043 4.25181V10.7457C2.34047 10.9968 1.80811 11.6982 1.80811 12.5219C1.80811 13.5565 2.64851 14.3969 3.68311 14.3969C4.7177 14.3969 5.55811 13.5565 5.55811 12.5219C5.55811 11.6982 5.02574 10.9985 4.28578 10.7457V10.2803L11.3756 7.95829C11.5459 7.90294 11.6942 7.79499 11.7992 7.64998C11.9042 7.50498 11.9604 7.33039 11.9599 7.15137V5.25795C12.6781 4.99344 13.192 4.30371 13.192 3.49679C13.192 2.46219 12.3516 1.62179 11.317 1.62179ZM2.87953 2.47559C2.88383 2.26531 2.97037 2.06509 3.12061 1.91789C3.27084 1.77069 3.47278 1.68825 3.68311 1.68825C3.89343 1.68825 4.09537 1.77069 4.24561 1.91789C4.39584 2.06509 4.48238 2.26531 4.48668 2.47559C4.48238 2.68587 4.39584 2.88609 4.24561 3.03328C4.09537 3.18048 3.89343 3.26292 3.68311 3.26292C3.47278 3.26292 3.27084 3.18048 3.12061 3.03328C2.97037 2.88609 2.88383 2.68587 2.87953 2.47559V2.47559ZM4.48668 12.5202C4.48238 12.7305 4.39584 12.9307 4.24561 13.0779C4.09537 13.2251 3.89343 13.3076 3.68311 13.3076C3.47278 13.3076 3.27084 13.2251 3.12061 13.0779C2.97037 12.9307 2.88383 12.7305 2.87953 12.5202C2.88383 12.3099 2.97037 12.1097 3.12061 11.9625C3.27084 11.8153 3.47278 11.7329 3.68311 11.7329C3.89343 11.7329 4.09537 11.8153 4.24561 11.9625C4.39584 12.1097 4.48238 12.3099 4.48668 12.5202ZM11.317 4.30036C11.1068 4.29607 10.9065 4.20952 10.7593 4.05929C10.6121 3.90906 10.5297 3.70712 10.5297 3.49679C10.5297 3.28647 10.6121 3.08452 10.7593 2.93429C10.9065 2.78406 11.1068 2.69751 11.317 2.69322C11.5273 2.69751 11.7275 2.78406 11.8747 2.93429C12.0219 3.08452 12.1044 3.28647 12.1044 3.49679C12.1044 3.70712 12.0219 3.90906 11.8747 4.05929C11.7275 4.20952 11.5273 4.29607 11.317 4.30036V4.30036Z" fill="#FF7875"/>
</g>
</g>
<defs>
<linearGradient id="paint0_linear_642_2547" x1="161.388" y1="-9" x2="162.453" y2="87.1262" gradientUnits="userSpaceOnUse">
<stop stop-color="#FFF1F0"/>
<stop offset="0.595863" stop-color="white"/>
<stop offset="0.958333" stop-color="white" stop-opacity="0.998668"/>
</linearGradient>
<clipPath id="clip0_642_2547">
<rect width="375" height="812" fill="white" transform="translate(-22 -76)"/>
</clipPath>
</defs>
</svg>
